<?xml version="1.0" encoding="UTF-8" standalone="no"?><!DOCTYPE svg PUBLIC "-//W3C//DTD SVG 1.1//EN" "http://www.w3.org/Graphics/SVG/1.1/DTD/svg11.dtd"><svg width="100%" height="100%" viewBox="0 0 8000 4500" version="1.1" xmlns="http://www.w3.org/2000/svg" xmlns:xlink="http://www.w3.org/1999/xlink" xml:space="preserve" xmlns:serif="http://www.serif.com/" style="fill-rule:evenodd;clip-rule:evenodd;stroke-linejoin:round;stroke-miterlimit:2;"><rect id="Artboard1" x="0" y="0" width="8000" height="4500" style="fill:none;"/><clipPath id="_clip1"><rect id="Artboard11" serif:id="Artboard1" x="0" y="0" width="8000" height="4500"/></clipPath><g clip-path="url(#_clip1)"><path d="M-18.503,2618.57l3354.9,0c11.051,0 21.649,-4.39 29.463,-12.204c7.814,-7.814 12.204,-18.412 12.203,-29.463c0,-336.823 0,-2602.01 0,-2602.01l-3392.31,0l-4.252,2643.68Z" style="fill:#125e9d;"/><path d="M1.365,4099.18l-0,399.442l7999.06,-0l0,-4503.95l-3045.86,0l0,4067.02c0,11.479 -9.285,20.795 -20.763,20.833c-347.204,1.173 -4932.44,16.661 -4932.44,16.661Z" style="fill:#125e9d;"/></g></svg>