<?xml version="1.0" encoding="UTF-8" standalone="no"?><!DOCTYPE svg PUBLIC "-//W3C//DTD SVG 1.1//EN" "http://www.w3.org/Graphics/SVG/1.1/DTD/svg11.dtd"><svg width="100%" height="100%" viewBox="0 0 8000 4500" version="1.1" xmlns="http://www.w3.org/2000/svg" xmlns:xlink="http://www.w3.org/1999/xlink" xml:space="preserve" xmlns:serif="http://www.serif.com/" style="fill-rule:evenodd;clip-rule:evenodd;stroke-linejoin:round;stroke-miterlimit:2;"><path d="M-12.173,383.678l1862.89,0c11.05,0 21.648,4.39 29.462,12.204c7.814,7.814 12.204,18.412 12.204,29.463c0,169.919 0,809.478 0,978.76c0,22.877 -18.444,41.475 -41.32,41.665c-150.097,1.248 -665.587,5.534 -816.803,6.791c-11.11,0.092 -21.797,-4.257 -29.686,-12.08c-7.889,-7.824 -12.327,-18.475 -12.327,-29.585c0,-66.825 0,-196.525 0,-262.763c0,-22.784 18.302,-41.344 41.084,-41.663c107.467,-1.503 394.053,-5.513 473.273,-6.621c11.392,-0.159 20.542,-9.439 20.542,-20.831c0,-73.896 0,-325.717 0,-399.866c0,-11.455 -9.247,-20.761 -20.701,-20.833c-144.312,-0.912 -998.509,-6.307 -1143.28,-7.221c-5.527,-0.035 -10.841,2.127 -14.773,6.012c-3.931,3.884 -6.159,9.171 -6.191,14.698c-0.877,148.75 -6.177,1047.64 -7.048,1195.42c-0.067,11.397 9.035,20.732 20.43,20.952c20.57,0.398 52.801,1.022 78.727,1.524c22.975,0.444 41.253,19.406 40.854,42.382c-2.043,117.701 -7.848,452.191 -9.866,568.474c-0.391,22.523 -18.612,40.657 -41.137,40.94c-57.324,0.72 -160.069,2.011 -203.484,2.556c-11.275,0.141 -20.391,9.227 -20.569,20.501c-1.966,123.84 -12.346,777.963 -14.354,904.508c-0.089,5.589 2.072,10.98 5.997,14.96c3.926,3.98 9.286,6.215 14.876,6.204c119.603,-0.245 710.23,-1.454 873.858,-1.789c11.124,-0.023 21.795,4.403 29.636,12.293c7.842,7.889 12.204,18.587 12.114,29.71c-0.687,85.161 -2.236,276.974 -2.918,361.497c-0.185,22.88 -18.785,41.331 -41.666,41.331c-117.401,-0 -449.977,-0 -536.594,-0c-5.525,-0 -10.824,2.194 -14.731,6.101c-3.907,3.908 -6.102,9.207 -6.102,14.732c-0,68.722 -0,287.749 -0,356.471c-0,5.525 2.195,10.824 6.102,14.731c3.907,3.907 9.206,6.102 14.731,6.102c325.429,0 4358.62,0 4684.05,0c11.506,0 20.834,-9.327 20.834,-20.833c-0,-30.658 -0,-88.565 -0,-128.158c-0,-11.05 4.39,-21.648 12.204,-29.462c7.814,-7.814 18.412,-12.204 29.462,-12.204c346.541,-0 2737.73,-0 2737.73,-0l-0,370.1l-8043,-0l5.488,-4127.18Z" style="fill:#125e9d;"/><path d="M2965.55,-8.842l-0,548.832c-0,11.051 4.389,21.649 12.203,29.463c7.814,7.814 18.413,12.204 29.463,12.204c305.867,0 2200.81,0 2506.68,0c11.05,0 21.648,-4.39 29.462,-12.204c7.814,-7.814 12.204,-18.412 12.204,-29.463c0,-79.708 0,-251.149 0,-310.666c0,-5.53 2.199,-10.834 6.112,-14.741c3.914,-3.908 9.22,-6.1 14.751,-6.092c207.633,0.289 1899.5,2.648 2106.05,2.935c11.428,0.016 20.71,9.235 20.803,20.663c1.125,137.105 7.505,915.278 8.639,1053.53c0.046,5.555 -2.129,10.897 -6.041,14.841c-3.912,3.945 -9.236,6.163 -14.791,6.163c-43.218,-0 -142.792,-0 -199.581,-0c-23.012,0 -41.666,18.655 -41.666,41.667c-0,81.013 -0,257.111 -0,317.524c-0,11.506 -9.328,20.833 -20.834,20.833c-58.052,-0 -224.445,-0 -332.224,-0c-63.431,-0 -125.545,18.099 -179.049,52.17c-358.237,228.131 -1786.27,1137.52 -2171.95,1383.13c-60.061,38.248 -96.428,104.521 -96.428,175.727c0,131.401 0,340.29 0,428.665c0,11.051 4.39,21.649 12.204,29.463c7.814,7.814 18.412,12.204 29.463,12.204c321.364,0 2401.63,0 2723,0c11.051,0 21.649,-4.39 29.463,-12.204c7.814,-7.814 12.204,-18.412 12.204,-29.463c0,-53.052 0,-142.669 0,-183.053c0,-11.506 9.328,-20.834 20.833,-20.834c100.314,0 528.74,0 528.74,0l0,-3537.15l-5057.24,-0" style="fill:#125e9d;"/><path d="M2451.06,1079.35c-0,20.213 -0,1022.04 -0,1237.98c-0,23.011 18.654,41.666 41.666,41.666c301.136,0 2141.23,0 2442.37,0c23.012,0 41.666,-18.655 41.666,-41.666c0,-142.6 0,-610.121 0,-752.72c0,-23.012 -18.654,-41.667 -41.666,-41.667c-208.762,0 -1136.92,0 -1288.05,0c-11.506,0 -20.833,-9.327 -20.833,-20.833c-0,-73.713 -0,-323.089 -0,-422.761c-0,-23.012 -18.655,-41.667 -41.667,-41.667c-182.388,-0 -909.429,-0 -1091.82,-0c-11.051,-0 -21.649,4.39 -29.463,12.204c-7.814,7.814 -12.204,18.412 -12.203,29.463Z" style="fill:#125e9d;"/></svg>