<?xml version="1.0" encoding="UTF-8" standalone="no"?><!DOCTYPE svg PUBLIC "-//W3C//DTD SVG 1.1//EN" "http://www.w3.org/Graphics/SVG/1.1/DTD/svg11.dtd"><svg width="100%" height="100%" viewBox="0 0 4500 8000" version="1.1" xmlns="http://www.w3.org/2000/svg" xmlns:xlink="http://www.w3.org/1999/xlink" xml:space="preserve" xmlns:serif="http://www.serif.com/" style="fill-rule:evenodd;clip-rule:evenodd;stroke-linecap:round;stroke-linejoin:round;stroke-miterlimit:1.5;"><rect id="Artboard1" x="0" y="0" width="4500" height="8000" style="fill:none;"/><clipPath id="_clip1"><rect id="Artboard11" serif:id="Artboard1" x="0" y="0" width="4500" height="8000"/></clipPath><g clip-path="url(#_clip1)"><path d="M154.882,7865.56c-5.533,0.012 -10.844,-2.177 -14.76,-6.086c-3.917,-3.908 -6.118,-9.214 -6.118,-14.747c-0,-426.292 -0,-7242.19 -0,-7668.03c-0,-11.506 9.327,-20.834 20.833,-20.834c305.385,0 3870.02,0 4175.41,0c11.506,0 20.833,9.328 20.833,20.834l0,7659.03c0,11.488 -9.3,20.809 -20.788,20.833c-305.066,0.658 -3869.7,8.344 -4175.41,9.003Z" style="fill:none;stroke:#bbbab5;stroke-width:416.67px;"/></g></svg>